PathFileType	4	(X/Y/Z)	TestModele.trc	
DataRate	CameraRate	NumFrames	NumMarkers	Units	OrigDataRate	OrigDataStartFrame	OrigNumFrames	
100	100	14	11	m	100	0	0.99	
Frame#	Time	STER	XIPH	T10	C7	CLAV_SC	CLAV_post	CLAV_AC	SCAP_IA	SCAP_RS	SCAP_SA	ACRO_tip	
Frame#	s	x1	y1	z1	x2	y2	z2	x3	y3	z3	x4	y4	z4	x5	y5	z5	x6	y6	z6	x7	y7	z7	x8	y8	z8	x9	y9	z9	x10	y10	z10	x11	y11	z11	

1	0.0000000	-0.3681049972	-1.5886954194	-0.4179891251	-0.2923758814	-1.7240794940	-0.4423782586	-0.5073279999	-1.7744110117	-0.4236091486	-0.5104138674	-1.5353058950	-0.3906243687	-0.3787034736	-1.5580652985	-0.3700889930	-0.4101913371	-1.5125047309	-0.3446603636	-0.4274795346	-1.4549187780	-0.3378643027	-0.5209601724	-1.4401683728	-0.5075840743	-0.4297955446	-1.5056808488	-0.4524165319	-0.4130538178	-1.5131102489	-0.4098830808	-0.4193502886	-1.4361125102	-0.3311508192	
2	0.0100000	-0.3622693749	-1.5255310542	-0.4215391485	-0.2532144408	-1.5473601584	-0.5323953077	-0.3889706137	-1.7221962270	-0.5420163830	-0.4846703967	-1.5964301394	-0.3595520909	-0.3633147758	-1.5373023247	-0.3648011137	-0.3966866241	-1.5448915370	-0.3143770158	-0.4336178280	-1.5270723721	-0.2698823674	-0.5892408709	-1.5002663536	-0.3834194529	-0.4642489000	-1.4996679271	-0.3882132753	-0.4283088812	-1.5128715419	-0.3621641782	-0.4342782804	-1.5141521148	-0.2520288399	
3	0.0200000	-0.3708869052	-1.4711149574	-0.3911577709	-0.3023625154	-1.3464711282	-0.4576927265	-0.3365592194	-1.4937326016	-0.6196637064	-0.4215232411	-1.6124384162	-0.4274169385	-0.3496541402	-1.5176498585	-0.3636599971	-0.3574825706	-1.5752287276	-0.3452954775	-0.3824657723	-1.6193013600	-0.3122099385	-0.5559705987	-1.6102920480	-0.4000002200	-0.4578924987	-1.5383453453	-0.3708336313	-0.4143478142	-1.5431930817	-0.3558357726	-0.3846102607	-1.6275950142	-0.2913450132	
4	0.0300000	-0.3785741767	-1.4561117451	-0.3527186604	-0.3856567458	-1.3204755912	-0.2739071927	-0.3917711956	-1.2688060915	-0.4892739282	-0.3725670437	-1.5092865140	-0.4975890992	-0.3341522573	-1.4895571151	-0.3698591270	-0.3114522105	-1.5304871732	-0.4088886578	-0.3060320739	-1.5853735748	-0.4337747027	-0.4803931306	-1.5795308439	-0.5204840483	-0.4209543129	-1.5381617212	-0.4184940769	-0.3776892775	-1.5348125141	-0.4023232582	-0.2996612142	-1.6073649603	-0.4308684895	
5	0.0400000	-0.3706355649	-1.4618540193	-0.3445413559	-0.4173705058	-1.4671503564	-0.1947202272	-0.4953815354	-1.2774856101	-0.2785743725	-0.3760872549	-1.3686711758	-0.4675792464	-0.3214230967	-1.4439035096	-0.3701236317	-0.2929809776	-1.4190160140	-0.4179307911	-0.2699797361	-1.4185677965	-0.4738946382	-0.4452303403	-1.4167604122	-0.5593251569	-0.3864293413	-1.4617354719	-0.4584984831	-0.3462729369	-1.4560499475	-0.4361442026	-0.2542234354	-1.4268236305	-0.4894337701	
6	0.0500000	-0.3468073682	-1.4458533931	-0.3600894485	-0.3605321491	-1.5786096968	-0.2773490673	-0.5427127222	-1.4594079929	-0.2362255091	-0.4212058112	-1.3127419007	-0.3845289249	-0.3204962733	-1.3948182927	-0.3494078041	-0.3192811676	-1.3340412139	-0.3537131798	-0.3100893966	-1.2812467630	-0.3818106441	-0.4697620012	-1.3006796614	-0.4922609832	-0.3772849278	-1.3680994664	-0.4417744263	-0.3434748316	-1.3629970791	-0.4105427293	-0.2956836936	-1.2651929416	-0.3927263281	
7	0.0600000	-0.3215373477	-1.4027385215	-0.3619358780	-0.2614736921	-1.5478141383	-0.3599360852	-0.4816810221	-1.5707118130	-0.3685606280	-0.4580714634	-1.3305622849	-0.3622703161	-0.3351006822	-1.3645114632	-0.3197740023	-0.3728593325	-1.3230007498	-0.2960040409	-0.3966880307	-1.2677252240	-0.2898380391	-0.4939133100	-1.2823291240	-0.4585448869	-0.3843592716	-1.3122277668	-0.4061014368	-0.3650452789	-1.3134700520	-0.3640300419	-0.3957455186	-1.2436109038	-0.2843791722	
8	0.0700000	-0.3105297557	-1.3618210925	-0.3402235514	-0.2062751582	-1.4790369314	-0.3331523074	-0.3616185179	-1.5413161622	-0.4783407796	-0.4445511316	-1.3258117895	-0.4079929149	-0.3575156632	-1.3479364032	-0.3080695950	-0.4159722539	-1.3311979280	-0.3040055427	-0.4616520265	-1.2915541984	-0.3022899485	-0.4491826449	-1.2605348330	-0.4948104497	-0.3774651653	-1.2767821914	-0.3936227129	-0.3819751842	-1.2899753809	-0.3494619233	-0.4751453859	-1.2721658019	-0.2931662862	
9	0.0800000	-0.3161371211	-1.3351226328	-0.3179810728	-0.2399342275	-1.4642148294	-0.2712167673	-0.2871394617	-1.4929471864	-0.4857769500	-0.3856961458	-1.2768010624	-0.4429259497	-0.3724673211	-1.3187337842	-0.3160941533	-0.4226271686	-1.2979733250	-0.3437863740	-0.4606203636	-1.2552385637	-0.3635719119	-0.3403929020	-1.2124515905	-0.5117218301	-0.3394265214	-1.2379325420	-0.3892631888	-0.3683886459	-1.2535798767	-0.3566912358	-0.4769985804	-1.2351910719	-0.3624183919	
10	0.0900000	-0.3252541724	-1.3081864784	-0.3069074916	-0.3240098620	-1.4544869208	-0.2498705851	-0.3202369628	-1.4727102442	-0.4706501814	-0.3290225444	-1.2332040570	-0.4418686771	-0.3682139087	-1.2699121284	-0.3189545446	-0.3975390760	-1.2339348215	-0.3584454804	-0.4094736922	-1.1817375445	-0.3866273790	-0.2501902494	-1.2043715360	-0.4979846732	-0.2886089660	-1.2131698890	-0.3792710564	-0.3282665063	-1.2128554549	-0.3553596263	-0.4163101148	-1.1564017497	-0.3904077149	
11	0.1000000	-0.3216619250	-1.2762470927	-0.2985829071	-0.3724590317	-1.4108274484	-0.2356038767	-0.4222758837	-1.4192520590	-0.4513288442	-0.3200225433	-1.2013091252	-0.4336114197	-0.3451541960	-1.2225112629	-0.3036757083	-0.3655974572	-1.1769384397	-0.3385907038	-0.3614258337	-1.1240458047	-0.3676798239	-0.2588191298	-1.2116429648	-0.5095641056	-0.2651115862	-1.2020170499	-0.3850085823	-0.2936535815	-1.1849743942	-0.3527676417	-0.3579722269	-1.0976767551	-0.3729988156	
12	0.1100000	-0.3012444229	-1.2480911077	-0.2953958296	-0.3321475469	-1.3840186836	-0.2230959851	-0.4901911095	-1.3563680490	-0.3758952953	-0.3595664849	-1.1553673228	-0.4042623651	-0.3144449689	-1.1918765217	-0.2835556287	-0.3446669993	-1.1408951832	-0.2977471070	-0.3505483073	-1.0852836475	-0.3208550605	-0.3609761650	-1.1644756070	-0.4997393020	-0.2916862027	-1.1665895261	-0.3956203119	-0.2937422437	-1.1509903966	-0.3520655680	-0.3477434327	-1.0582712513	-0.3264902280	
13	0.1200000	-0.2758213117	-1.2154170086	-0.3081978294	-0.2326566702	-1.3648994828	-0.2869756679	-0.4529887384	-1.3654578307	-0.3102870903	-0.4030854179	-1.1298309995	-0.3263628525	-0.2882067725	-1.1709913062	-0.2713736509	-0.3296448016	-1.1342680474	-0.2459147021	-0.3594146397	-1.0821373987	-0.2383409057	-0.4663586393	-1.1267021468	-0.3964626262	-0.3477167053	-1.1166774256	-0.3581229850	-0.3242210865	-1.1108837717	-0.3186392499	-0.3671462623	-1.0552694838	-0.2336007493	
14	0.1300000	-0.2620126778	-1.1602682223	-0.3220506530	-0.1587318588	-1.2449920804	-0.4045946823	-0.3381852080	-1.3722534901	-0.3783081171	-0.4023003774	-1.1726429847	-0.2586683815	-0.2703996295	-1.1511163505	-0.2642850516	-0.3025928773	-1.1633123368	-0.2139986839	-0.3421373201	-1.1509887543	-0.1698899938	-0.4854233685	-1.1927709983	-0.2971439958	-0.3844606522	-1.1201622148	-0.2836968366	-0.3487371376	-1.1151746545	-0.2546532383	-0.3574344272	-1.1404581740	-0.1476384396	
